<svg width="34" height="7" viewBox="0 0 34 7" fill="none" xmlns="http://www.w3.org/2000/svg">
<path d="M30.6084 6.2329H3.3916C1.83835 6.2329 0.579102 4.97365 0.579102 3.4204C0.579102 1.86716 1.83835 0.60791 3.3916 0.60791H30.6084C32.1616 0.60791 33.4209 1.86716 33.4209 3.4204C33.4209 4.97365 32.1616 6.2329 30.6084 6.2329Z" fill="#FF981A"/>
<path d="M1.70374 3.79503C1.49749 3.79503 1.32874 3.62628 1.32874 3.42004C1.32874 3.21379 1.49749 3.04504 1.70374 3.04504C1.90999 3.04504 2.07686 3.21191 2.07874 3.41816V3.42004C2.07874 3.62628 1.90999 3.79503 1.70374 3.79503ZM2.32811 2.48629C2.21561 2.48629 2.10874 2.43566 2.03749 2.34754C1.90624 2.18629 1.93061 1.95004 2.09186 1.82067C2.45749 1.52254 2.91874 1.35754 3.38936 1.35754H28.6737C28.8819 1.35754 29.0487 1.52629 29.0487 1.73254C29.0487 1.93879 28.8819 2.10754 28.6737 2.10754H3.39124C3.08749 2.10754 2.80061 2.20879 2.56436 2.40192C2.49874 2.45629 2.41436 2.48629 2.32811 2.48629Z" fill="#FFC91D"/>
<path d="M31.4253 0.728516C31.5037 0.987079 31.5459 1.26139 31.5459 1.54545C31.5459 3.09871 30.2866 4.35796 28.7334 4.35796H1.51664C1.23258 4.35796 0.958269 4.31577 0.699707 4.2374C1.04977 5.39221 2.12246 6.23296 3.39164 6.23296H30.6084C32.1616 6.23296 33.4209 4.97371 33.4209 3.42046C33.4209 2.15127 32.5801 1.07839 31.4253 0.728516Z" fill="#F97F0D"/>
</svg>
