<svg width="34" height="6" viewBox="0 0 34 6" fill="none" xmlns="http://www.w3.org/2000/svg">
<path d="M30.6084 5.8125H3.3916C1.83835 5.8125 0.579102 4.55325 0.579102 3C0.579102 1.44675 1.83835 0.1875 3.3916 0.1875H30.6084C32.1616 0.1875 33.4209 1.44675 33.4209 3C33.4209 4.55325 32.1616 5.8125 30.6084 5.8125Z" fill="#FF981A"/>
<path d="M31.4253 0.308105C31.5037 0.566669 31.5459 0.840983 31.5459 1.12505C31.5459 2.6783 30.2866 3.93755 28.7334 3.93755H1.51664C1.23258 3.93755 0.958269 3.89537 0.699707 3.81699C1.04977 4.97181 2.12246 5.81256 3.39164 5.81256H30.6084C32.1616 5.81256 33.4209 4.55331 33.4209 3.00005C33.4209 1.73086 32.5801 0.658169 31.4253 0.308105Z" fill="#F97F0D"/>
</svg>
