<svg width="34" height="7" viewBox="0 0 34 7" fill="none" xmlns="http://www.w3.org/2000/svg">
<path d="M30.6084 6.39221H3.3916C1.83835 6.39221 0.579102 5.13296 0.579102 3.57971C0.579102 2.02646 1.83835 0.767212 3.3916 0.767212H30.6084C32.1616 0.767212 33.4209 2.02646 33.4209 3.57971C33.4209 5.13296 32.1616 6.39221 30.6084 6.39221Z" fill="#FF981A"/>
<path d="M31.4253 0.887695C31.5037 1.14626 31.5459 1.42057 31.5459 1.70463C31.5459 3.25788 30.2866 4.51714 28.7334 4.51714H1.51664C1.23258 4.51714 0.958269 4.47495 0.699707 4.39658C1.04977 5.55139 2.12246 6.39214 3.39164 6.39214H30.6084C32.1616 6.39214 33.4209 5.13289 33.4209 3.57964C33.4209 2.31063 32.5801 1.23776 31.4253 0.887695Z" fill="#F97F0D"/>
<path d="M32.0725 1.17798C32.3331 1.60454 32.4833 2.10573 32.4833 2.64216C32.4833 4.19541 31.2241 5.45466 29.6708 5.45466H2.45406C1.91762 5.45466 1.41643 5.30448 0.989868 5.04385C1.48393 5.85235 2.37474 6.39216 3.39156 6.39216H30.6083C32.1616 6.39216 33.4208 5.13291 33.4208 3.57966C33.4208 2.56285 32.881 1.67204 32.0725 1.17798Z" fill="#EA6608"/>
</svg>
